<svg xmlns="http://www.w3.org/2000/svg" viewBox="0 0 69.22 69.24"><defs><style>.cls-1{fill:#fff;}</style></defs><g id="Capa_2" data-name="Capa 2"><g id="Capa_1-2" data-name="Capa 1"><g id="vcf1gL"><path class="cls-1" d="M47.81,69.24V42.45h9L58.16,32H47.93c-.08-.11-.13-.15-.13-.19,0-2.43-.09-4.86,0-7.28.13-2.89,1.55-4.19,4.45-4.27,1.78-.06,3.56,0,5.34,0h.81V10.85c-.89-.07-1.77-.18-2.64-.22-3-.12-6-.46-8.91.18a11.67,11.67,0,0,0-9.61,10.26c-.3,2.4-.23,4.84-.3,7.27,0,1.17,0,2.35,0,3.61H28V42.42h8.86V69.24H4.15A3.83,3.83,0,0,1,0,65.11V4.1A3.78,3.78,0,0,1,4.08,0h61a3.83,3.83,0,0,1,4.13,4.14q0,30.46,0,60.94a3.87,3.87,0,0,1-4.14,4.16H47.81Z"/></g></g></g></svg>