<svg xmlns="http://www.w3.org/2000/svg" viewBox="0 0 69.07 69.06"><defs><style>.cls-1{fill:#fff;}</style></defs><g id="Capa_2" data-name="Capa 2"><g id="Capa_1-2" data-name="Capa 1"><path class="cls-1" d="M51.41,69.06H17.7c-.22,0-.43-.1-.65-.12a17,17,0,0,1-5.45-1.43C4.19,64,.19,58.13.08,49.92c-.15-10.25,0-20.5,0-30.75A18.15,18.15,0,0,1,2.47,9.83a18.71,18.71,0,0,1,17-9.8c10.07,0,20.13,0,30.2,0a18.62,18.62,0,0,1,3.88.35c7.82,1.73,12.82,6.48,15,14.2.28,1,.39,2.07.57,3.1V51.39c-.11.71-.19,1.42-.34,2.12-1.76,7.82-6.5,12.84-14.23,15C53.5,68.77,52.44,68.88,51.41,69.06ZM34.61,6.14h-15a13.55,13.55,0,0,0-4.64.7,12.91,12.91,0,0,0-8.77,12.6c0,10.06,0,20.13,0,30.2a14.53,14.53,0,0,0,.7,4.49,12.76,12.76,0,0,0,12.55,8.8c10.07,0,20.13,0,30.19,0a14.55,14.55,0,0,0,4.5-.7,12.71,12.71,0,0,0,8.81-12.47q0-15.19,0-30.4A12.75,12.75,0,0,0,57.43,8.5a13,13,0,0,0-7.86-2.36Z"/><path class="cls-1" d="M52.34,34.54a17.79,17.79,0,1,1-17.8-17.79A17.86,17.86,0,0,1,52.34,34.54ZM34.52,22.88A11.66,11.66,0,1,0,46.21,34.51,11.68,11.68,0,0,0,34.52,22.88Z"/><path class="cls-1" d="M53.12,20.52a4.47,4.47,0,1,1,4.46-4.47A4.51,4.51,0,0,1,53.12,20.52Z"/></g></g></svg>